<?xml version="1.0" encoding="UTF-8"?>
<svg width="147px" height="177px" viewBox="0 0 147 177" version="1.1" xmlns="http://www.w3.org/2000/svg" xmlns:xlink="http://www.w3.org/1999/xlink">
    <!-- Generator: Sketch 52.5 (67469) - http://www.bohemiancoding.com/sketch -->
    <title>Investing Report Icon</title>
    <desc>Created with Sketch.</desc>
    <defs>
        <circle id="path-1" cx="24.5" cy="24.5" r="24.5"></circle>
        <filter x="-14.3%" y="-10.2%" width="128.6%" height="128.6%" filterUnits="objectBoundingBox" id="filter-2">
            <feOffset dx="0" dy="2" in="SourceAlpha" result="shadowOffsetOuter1"></feOffset>
            <feGaussianBlur stdDeviation="2" in="shadowOffsetOuter1" result="shadowBlurOuter1"></feGaussianBlur>
            <feColorMatrix values="0 0 0 0 0.435294118   0 0 0 0 0.470588235   0 0 0 0 0.611764706  0 0 0 0.08 0" type="matrix" in="shadowBlurOuter1"></feColorMatrix>
        </filter>
    </defs>
    <g id="Page-1" stroke="none" stroke-width="1" fill="none" fill-rule="evenodd">
        <g id="error" transform="translate(-118.000000, -322.000000)">
            <g id="Investing-Report-Icon" transform="translate(118.000000, 322.000000)">
                <path d="M0,9 L111,9 C114.313708,9 117,11.6862915 117,15 L117,149 C117,152.313708 114.313708,155 111,155 L6,155 C2.6862915,155 4.05812251e-16,152.313708 0,149 L0,9 Z" id="BG" fill="#FFFFFF"></path>
                <g id="Folder-top">
                    <path d="M6,0 L55,0 C58.3137085,-6.08718376e-16 61,2.6862915 61,6 L61,9 L0,9 L0,6 C-4.05812251e-16,2.6862915 2.6862915,6.08718376e-16 6,0 Z" id="Rectangle" fill="#FFFFFF"></path>
                    <path d="M7.5,0 L55,0 C58.3137085,-6.08718376e-16 61,2.6862915 61,6 L61,9 L7.5,9 C5.01471863,9 3,6.98528137 3,4.5 L3,4.5 C3,2.01471863 5.01471863,4.56538782e-16 7.5,0 Z" id="Rectangle" fill="#7A82A3"></path>
                </g>
                <g id="Text-Placeholder" transform="translate(19.000000, 118.000000)" fill="#DAEBF6">
                    <rect id="Rectangle" x="0" y="0" width="83" height="6" rx="2"></rect>
                    <rect id="Rectangle-Copy" x="0" y="13" width="73" height="6" rx="2"></rect>
                </g>
                <g id="error" transform="translate(94.000000, 122.000000)">
                    <g id="Oval">
                        <use fill="black" fill-opacity="1" filter="url(#filter-2)" xlink:href="#path-1"></use>
                        <use fill="#FFFFFF" fill-rule="evenodd" xlink:href="#path-1"></use>
                    </g>
                    <path d="M28.7909091,25 L34.4767045,19.3142045 C35.1744318,18.6164773 35.1744318,17.4852273 34.4767045,16.7869318 L33.2130682,15.5232955 C32.5153409,14.8255682 31.3840909,14.8255682 30.6857955,15.5232955 L25,21.2090909 L19.3142045,15.5232955 C18.6164773,14.8255682 17.4852273,14.8255682 16.7869318,15.5232955 L15.5232955,16.7869318 C14.8255682,17.4846591 14.8255682,18.6159091 15.5232955,19.3142045 L21.2090909,25 L15.5232955,30.6857955 C14.8255682,31.3835227 14.8255682,32.5147727 15.5232955,33.2130682 L16.7869318,34.4767045 C17.4846591,35.1744318 18.6164773,35.1744318 19.3142045,34.4767045 L25,28.7909091 L30.6857955,34.4767045 C31.3835227,35.1744318 32.5153409,35.1744318 33.2130682,34.4767045 L34.4767045,33.2130682 C35.1744318,32.5153409 35.1744318,31.3840909 34.4767045,30.6857955 L28.7909091,25 Z" id="Path" fill="#EC1B5F"></path>
                </g>
                <g id="Inner-Window" transform="translate(19.000000, 21.000000)">
                    <rect id="Rectangle" stroke="#EDF5FB" stroke-width="2" fill="#F9FAFC" x="1" y="1" width="81" height="81" rx="4"></rect>
                    <text id="AI" font-family="ProximaNova-Regular, Proxima Nova" font-size="12" font-weight="normal" letter-spacing="0.002025" fill="#7A82A3">
                        <tspan x="36" y="72">AI</tspan>
                    </text>
                    <path d="M34.9722222,16 C32.5349132,16 30.5055903,17.6857422 29.9295139,19.9555469 C29.868316,19.9539062 29.8111979,19.9375 29.75,19.9375 C26.8663542,19.9375 24.5277778,22.2876953 24.5277778,25.1875 C24.5277778,25.5845312 24.58,25.9676172 24.6632292,26.3392188 C22.2871181,27.3203125 20.6111111,29.6639453 20.6111111,32.40625 C20.6111111,33.4382031 20.8689583,34.40125 21.2916319,35.2699609 C19.3332986,36.4028125 18,38.5036328 18,40.9375 C18,43.6724219 19.6662153,46.0135937 22.0325347,46.9987891 C21.9590972,47.3736719 21.9166667,47.7600391 21.9166667,48.15625 C21.9166667,51.4178125 24.5465451,54.0625 27.7916667,54.0625 C28.1278472,54.0625 28.4526042,54.0173828 28.7732812,53.9632422 C29.5549826,56.3027734 31.7287326,58 34.3194444,58 C37.564566,58 40.1944444,55.3553125 40.1944444,52.09375 L40.1944444,32.8533203 C39.3042187,33.5899609 38.2377431,34.1207031 37.064375,34.361875 C36.6588368,34.4455469 36.2777778,34.1305469 36.2777778,33.7146484 L36.2777778,32.3873828 C36.2777778,32.0945313 36.4695312,31.8312109 36.7510417,31.7590234 C38.7256944,31.2537109 40.1944444,29.46625 40.1944444,27.3260547 L40.1944444,21.25 C40.1944444,18.3501953 37.8558681,16 34.9722222,16 Z M65,40.9375 C65,38.5036328 63.6667014,36.4028125 61.7083681,35.2699609 C62.1302257,34.40125 62.3888889,33.4382031 62.3888889,32.40625 C62.3888889,29.6639453 60.7128819,27.3203125 58.3367708,26.3392188 C58.42,25.9676172 58.4722222,25.5845312 58.4722222,25.1875 C58.4722222,22.2876953 56.1336458,19.9375 53.25,19.9375 C53.1888021,19.9375 53.131684,19.9539062 53.0704861,19.9555469 C52.4944097,17.6857422 50.4650868,16 48.0277778,16 C45.1441319,16 42.8055556,18.3501953 42.8055556,21.25 L42.8055556,27.3260547 C42.8055556,29.46625 44.2734896,31.2537109 46.2489583,31.7590234 C46.5312847,31.8312109 46.7222222,32.0945313 46.7222222,32.3873828 L46.7222222,33.7146484 C46.7222222,34.1305469 46.3403472,34.4455469 45.935625,34.361875 C44.7622569,34.1207031 43.6965972,33.5899609 42.8055556,32.8533203 L42.8055556,52.09375 C42.8055556,55.3553125 45.435434,58 48.6805556,58 C51.2712674,58 53.4450174,56.3027734 54.2267187,53.9632422 C54.5473958,54.0182031 54.8721528,54.0625 55.2083333,54.0625 C58.4534549,54.0625 61.0833333,51.4178125 61.0833333,48.15625 C61.0833333,47.7600391 61.0409028,47.3736719 60.9674653,46.9987891 C63.3337847,46.0135937 65,43.6724219 65,40.9375 Z" id="Shape" fill="#7A82A3" fill-rule="nonzero"></path>
                </g>
            </g>
        </g>
    </g>
</svg>